<mxfile host="65bd71144e">
    <diagram id="ShO7q3t4R8ToIVqjYavh" name="Seite-1">
        <mxGraphModel dx="1262" dy="800" grid="1" gridSize="10" guides="1" tooltips="1" connect="1" arrows="1" fold="1" page="1" pageScale="1" pageWidth="2336" pageHeight="1654" math="0" shadow="0">
            <root>
                <mxCell id="0"/>
                <mxCell id="1" parent="0"/>
                <mxCell id="2" value="Business-Layer" style="rounded=0;whiteSpace=wrap;html=1;fillColor=#d5e8d4;strokeColor=#82b366;gradientColor=#97d077;align=left;verticalAlign=top;" parent="1" vertex="1">
                    <mxGeometry x="40" y="80" width="1360" height="920" as="geometry"/>
                </mxCell>
                <mxCell id="57" style="edgeStyle=none;html=1;entryX=-0.009;entryY=0.177;entryDx=0;entryDy=0;exitX=1;exitY=0.5;exitDx=0;exitDy=0;entryPerimeter=0;" parent="1" source="74" target="141" edge="1">
                    <mxGeometry relative="1" as="geometry">
                        <Array as="points"/>
                        <mxPoint x="1013.04" y="334" as="targetPoint"/>
                    </mxGeometry>
                </mxCell>
                <mxCell id="58" style="edgeStyle=none;html=1;entryX=0.1;entryY=0.5;entryDx=0;entryDy=0;exitX=1;exitY=0.25;exitDx=0;exitDy=0;entryPerimeter=0;" parent="1" source="74" target="12" edge="1">
                    <mxGeometry relative="1" as="geometry">
                        <Array as="points"/>
                    </mxGeometry>
                </mxCell>
                <mxCell id="12" value="TransactionLink&#10;Resolver" style="shape=module;align=left;spacingLeft=20;align=center;verticalAlign=top;fillColor=#dae8fc;gradientColor=#7ea6e0;strokeColor=#6c8ebf;" parent="1" vertex="1">
                    <mxGeometry x="1025" y="210" width="115" height="50" as="geometry"/>
                </mxCell>
                <mxCell id="74" value="&lt;p style=&quot;margin: 0px ; margin-top: 4px ; text-align: center&quot;&gt;&lt;b&gt;AdminResolver&lt;/b&gt;&lt;/p&gt;&lt;hr size=&quot;1&quot;&gt;&lt;p style=&quot;margin: 0px ; margin-left: 4px&quot;&gt;+ searchUsers():&amp;nbsp;SearchUsersResult&lt;/p&gt;&lt;p style=&quot;margin: 0px ; margin-left: 4px&quot;&gt;+&amp;nbsp;setUserRole(): Date | null&lt;/p&gt;&lt;p style=&quot;margin: 0px ; margin-left: 4px&quot;&gt;+&amp;nbsp;deleteUser(): Date | null&lt;/p&gt;&lt;p style=&quot;margin: 0px ; margin-left: 4px&quot;&gt;+&amp;nbsp;unDeleteUser(): Date | null&lt;/p&gt;&lt;p style=&quot;margin: 0px ; margin-left: 4px&quot;&gt;+&amp;nbsp;adminCreateContribution():&amp;nbsp;Decimal[]&lt;/p&gt;&lt;p style=&quot;margin: 0px ; margin-left: 4px&quot;&gt;+&amp;nbsp;adminCreateContributions():&amp;nbsp;AdminCreateContributions&lt;/p&gt;&lt;p style=&quot;margin: 0px ; margin-left: 4px&quot;&gt;+&amp;nbsp;adminUpdateContribution():&amp;nbsp;AdminUpdateContribution&lt;/p&gt;&lt;p style=&quot;margin: 0px ; margin-left: 4px&quot;&gt;+&amp;nbsp;listUnconfirmedContributions():&amp;nbsp;UnconfirmedContribution[]&lt;/p&gt;&lt;p style=&quot;margin: 0px ; margin-left: 4px&quot;&gt;+&amp;nbsp;adminDeleteContribution():&amp;nbsp;boolean&lt;/p&gt;&lt;p style=&quot;margin: 0px ; margin-left: 4px&quot;&gt;+&amp;nbsp;confirmContribution():&amp;nbsp;boolean&lt;/p&gt;&lt;p style=&quot;margin: 0px ; margin-left: 4px&quot;&gt;+&amp;nbsp;creationTransactionList():&amp;nbsp;Transaction[]&lt;/p&gt;&lt;p style=&quot;margin: 0px ; margin-left: 4px&quot;&gt;+&amp;nbsp;sendActivationEmail():&amp;nbsp;boolean&lt;/p&gt;&lt;p style=&quot;margin: 0px ; margin-left: 4px&quot;&gt;+&amp;nbsp;listTransactionLinksAdmin():&amp;nbsp;TransactionLinkResult&lt;/p&gt;&lt;p style=&quot;margin: 0px ; margin-left: 4px&quot;&gt;+&amp;nbsp;createContributionLink():&amp;nbsp;ContributionLink&lt;/p&gt;&lt;p style=&quot;margin: 0px ; margin-left: 4px&quot;&gt;+&amp;nbsp;listContributionLinks():&amp;nbsp;ContributionLinkList&lt;/p&gt;&lt;p style=&quot;margin: 0px ; margin-left: 4px&quot;&gt;+&amp;nbsp;deleteContributionLink():&amp;nbsp;Date | null&lt;/p&gt;&lt;p style=&quot;margin: 0px ; margin-left: 4px&quot;&gt;+&amp;nbsp;updateContributionLink():&amp;nbsp;ContributionLink&lt;/p&gt;&lt;p style=&quot;margin: 0px ; margin-left: 4px&quot;&gt;+&amp;nbsp;adminCreateContributionMessage():&amp;nbsp;ContributionMessage&lt;/p&gt;" style="verticalAlign=top;align=left;overflow=fill;fontSize=12;fontFamily=Helvetica;html=1;" vertex="1" parent="1">
                    <mxGeometry x="445" y="120" width="335" height="300" as="geometry"/>
                </mxCell>
                <mxCell id="75" value="server" style="shape=folder;fontStyle=1;spacingTop=10;tabWidth=40;tabHeight=14;tabPosition=left;html=1;align=left;verticalAlign=top;fillColor=#f5f5f5;gradientColor=#b3b3b3;strokeColor=#666666;" vertex="1" parent="1">
                    <mxGeometry x="55" y="607.5" width="150" height="80" as="geometry"/>
                </mxCell>
                <mxCell id="76" value="context" style="html=1;fillColor=#dae8fc;gradientColor=#7ea6e0;strokeColor=#6c8ebf;" vertex="1" parent="1">
                    <mxGeometry x="65" y="647.5" width="60" height="30" as="geometry"/>
                </mxCell>
                <mxCell id="77" value="logger" style="html=1;fillColor=#dae8fc;gradientColor=#7ea6e0;strokeColor=#6c8ebf;" vertex="1" parent="1">
                    <mxGeometry x="135" y="647.5" width="60" height="30" as="geometry"/>
                </mxCell>
                <mxCell id="78" value="model" style="shape=folder;fontStyle=1;spacingTop=10;tabWidth=40;tabHeight=14;tabPosition=left;html=1;align=left;verticalAlign=top;fillColor=#f5f5f5;gradientColor=#b3b3b3;strokeColor=#666666;" vertex="1" parent="1">
                    <mxGeometry x="395" y="607.5" width="335" height="160" as="geometry"/>
                </mxCell>
                <mxCell id="79" value="UserAdmin" style="html=1;fillColor=#dae8fc;gradientColor=#7ea6e0;strokeColor=#6c8ebf;" vertex="1" parent="1">
                    <mxGeometry x="400" y="647.5" width="70" height="30" as="geometry"/>
                </mxCell>
                <mxCell id="80" value="Unconfirmed&lt;br&gt;Contribution" style="html=1;fillColor=#dae8fc;gradientColor=#7ea6e0;strokeColor=#6c8ebf;" vertex="1" parent="1">
                    <mxGeometry x="480" y="647.5" width="75" height="30" as="geometry"/>
                </mxCell>
                <mxCell id="81" value="AdminCreate&lt;br&gt;Contributions" style="html=1;fillColor=#dae8fc;gradientColor=#7ea6e0;strokeColor=#6c8ebf;" vertex="1" parent="1">
                    <mxGeometry x="400" y="687.5" width="75" height="30" as="geometry"/>
                </mxCell>
                <mxCell id="82" value="AdminUpdate&lt;br&gt;Contribution" style="html=1;fillColor=#dae8fc;gradientColor=#7ea6e0;strokeColor=#6c8ebf;" vertex="1" parent="1">
                    <mxGeometry x="480" y="687.5" width="75" height="30" as="geometry"/>
                </mxCell>
                <mxCell id="83" value="Contribution&lt;br&gt;Link" style="html=1;fillColor=#dae8fc;gradientColor=#7ea6e0;strokeColor=#6c8ebf;" vertex="1" parent="1">
                    <mxGeometry x="400" y="727.5" width="75" height="30" as="geometry"/>
                </mxCell>
                <mxCell id="84" value="Contribution&lt;br&gt;LinkList" style="html=1;fillColor=#dae8fc;gradientColor=#7ea6e0;strokeColor=#6c8ebf;" vertex="1" parent="1">
                    <mxGeometry x="480" y="727.5" width="75" height="30" as="geometry"/>
                </mxCell>
                <mxCell id="85" value="auth" style="shape=folder;fontStyle=1;spacingTop=10;tabWidth=40;tabHeight=14;tabPosition=left;html=1;align=left;verticalAlign=top;fillColor=#f5f5f5;gradientColor=#b3b3b3;strokeColor=#666666;" vertex="1" parent="1">
                    <mxGeometry x="55" y="697.5" width="80" height="80" as="geometry"/>
                </mxCell>
                <mxCell id="86" value="RIGHTS" style="html=1;fillColor=#dae8fc;gradientColor=#7ea6e0;strokeColor=#6c8ebf;" vertex="1" parent="1">
                    <mxGeometry x="65" y="737.5" width="60" height="30" as="geometry"/>
                </mxCell>
                <mxCell id="87" value="repository" style="shape=folder;fontStyle=1;spacingTop=10;tabWidth=40;tabHeight=14;tabPosition=left;html=1;align=left;verticalAlign=top;fillColor=#f5f5f5;gradientColor=#b3b3b3;strokeColor=#666666;" vertex="1" parent="1">
                    <mxGeometry x="395" y="787.5" width="160" height="80" as="geometry"/>
                </mxCell>
                <mxCell id="88" value="User" style="html=1;fillColor=#dae8fc;gradientColor=#7ea6e0;strokeColor=#6c8ebf;" vertex="1" parent="1">
                    <mxGeometry x="405" y="827.5" width="60" height="30" as="geometry"/>
                </mxCell>
                <mxCell id="89" value="arg" style="shape=folder;fontStyle=1;spacingTop=10;tabWidth=40;tabHeight=14;tabPosition=left;html=1;align=left;verticalAlign=top;fillColor=#f5f5f5;gradientColor=#b3b3b3;strokeColor=#666666;" vertex="1" parent="1">
                    <mxGeometry x="745" y="787.5" width="340" height="170" as="geometry"/>
                </mxCell>
                <mxCell id="90" value="AdminCreate&lt;br&gt;ContributionArgs" style="html=1;fillColor=#dae8fc;gradientColor=#7ea6e0;strokeColor=#6c8ebf;" vertex="1" parent="1">
                    <mxGeometry x="755" y="827.5" width="100" height="30" as="geometry"/>
                </mxCell>
                <mxCell id="91" value="AdminUpdate&lt;br&gt;ContributionArgs" style="html=1;fillColor=#dae8fc;gradientColor=#7ea6e0;strokeColor=#6c8ebf;" vertex="1" parent="1">
                    <mxGeometry x="862.5" y="827.5" width="100" height="30" as="geometry"/>
                </mxCell>
                <mxCell id="92" value="SearchUsersArgs" style="html=1;fillColor=#dae8fc;gradientColor=#7ea6e0;strokeColor=#6c8ebf;" vertex="1" parent="1">
                    <mxGeometry x="755" y="867.5" width="100" height="30" as="geometry"/>
                </mxCell>
                <mxCell id="93" value="Contribution&lt;br&gt;LinkArgs" style="html=1;fillColor=#dae8fc;gradientColor=#7ea6e0;strokeColor=#6c8ebf;" vertex="1" parent="1">
                    <mxGeometry x="862.5" y="867.5" width="100" height="30" as="geometry"/>
                </mxCell>
                <mxCell id="94" value="entity" style="shape=folder;fontStyle=1;spacingTop=10;tabWidth=40;tabHeight=14;tabPosition=left;html=1;align=left;verticalAlign=top;fillColor=#f5f5f5;gradientColor=#b3b3b3;strokeColor=#666666;" vertex="1" parent="1">
                    <mxGeometry x="1125" y="600" width="260" height="160" as="geometry"/>
                </mxCell>
                <mxCell id="95" value="Transaction" style="html=1;fillColor=#dae8fc;gradientColor=#7ea6e0;strokeColor=#6c8ebf;" vertex="1" parent="1">
                    <mxGeometry x="1130" y="640" width="75" height="30" as="geometry"/>
                </mxCell>
                <mxCell id="96" value="Contribution&lt;br&gt;Link" style="html=1;fillColor=#dae8fc;gradientColor=#7ea6e0;strokeColor=#6c8ebf;" vertex="1" parent="1">
                    <mxGeometry x="1215" y="640" width="75" height="30" as="geometry"/>
                </mxCell>
                <mxCell id="97" value="Transaction&lt;br&gt;Link" style="html=1;fillColor=#dae8fc;gradientColor=#7ea6e0;strokeColor=#6c8ebf;" vertex="1" parent="1">
                    <mxGeometry x="1130" y="680" width="75" height="30" as="geometry"/>
                </mxCell>
                <mxCell id="98" value="Transaction" style="html=1;fillColor=#dae8fc;gradientColor=#7ea6e0;strokeColor=#6c8ebf;" vertex="1" parent="1">
                    <mxGeometry x="560" y="647.5" width="75" height="30" as="geometry"/>
                </mxCell>
                <mxCell id="99" value="Transaction&lt;br&gt;Link" style="html=1;fillColor=#dae8fc;gradientColor=#7ea6e0;strokeColor=#6c8ebf;" vertex="1" parent="1">
                    <mxGeometry x="560" y="687.5" width="75" height="30" as="geometry"/>
                </mxCell>
                <mxCell id="100" value="Transaction" style="html=1;fillColor=#dae8fc;gradientColor=#7ea6e0;strokeColor=#6c8ebf;" vertex="1" parent="1">
                    <mxGeometry x="475" y="827.5" width="70" height="30" as="geometry"/>
                </mxCell>
                <mxCell id="101" value="util" style="shape=folder;fontStyle=1;spacingTop=10;tabWidth=40;tabHeight=14;tabPosition=left;html=1;align=left;verticalAlign=top;fillColor=#f5f5f5;gradientColor=#b3b3b3;strokeColor=#666666;" vertex="1" parent="1">
                    <mxGeometry x="395" y="877.5" width="335" height="80" as="geometry"/>
                </mxCell>
                <mxCell id="102" value="decay" style="html=1;fillColor=#dae8fc;gradientColor=#7ea6e0;strokeColor=#6c8ebf;" vertex="1" parent="1">
                    <mxGeometry x="405" y="917.5" width="60" height="30" as="geometry"/>
                </mxCell>
                <mxCell id="103" value="Contribution" style="html=1;fillColor=#dae8fc;gradientColor=#7ea6e0;strokeColor=#6c8ebf;" vertex="1" parent="1">
                    <mxGeometry x="1215" y="677.5" width="75" height="30" as="geometry"/>
                </mxCell>
                <mxCell id="104" value="hasElopage&lt;br&gt;Buys" style="html=1;fillColor=#dae8fc;gradientColor=#7ea6e0;strokeColor=#6c8ebf;" vertex="1" parent="1">
                    <mxGeometry x="475" y="917.5" width="60" height="30" as="geometry"/>
                </mxCell>
                <mxCell id="105" value="LoginEmail&lt;br&gt;OptIn" style="html=1;fillColor=#dae8fc;gradientColor=#7ea6e0;strokeColor=#6c8ebf;" vertex="1" parent="1">
                    <mxGeometry x="1130" y="720" width="75" height="30" as="geometry"/>
                </mxCell>
                <mxCell id="106" value="User" style="html=1;fillColor=#dae8fc;gradientColor=#7ea6e0;strokeColor=#6c8ebf;" vertex="1" parent="1">
                    <mxGeometry x="1212.5" y="720" width="75" height="30" as="geometry"/>
                </mxCell>
                <mxCell id="107" value="User" style="html=1;fillColor=#dae8fc;gradientColor=#7ea6e0;strokeColor=#6c8ebf;" vertex="1" parent="1">
                    <mxGeometry x="560" y="727.5" width="75" height="30" as="geometry"/>
                </mxCell>
                <mxCell id="108" value="enum" style="shape=folder;fontStyle=1;spacingTop=10;tabWidth=40;tabHeight=14;tabPosition=left;html=1;align=left;verticalAlign=top;fillColor=#f5f5f5;gradientColor=#b3b3b3;strokeColor=#666666;" vertex="1" parent="1">
                    <mxGeometry x="745" y="600" width="340" height="157.5" as="geometry"/>
                </mxCell>
                <mxCell id="109" value="Transaction&lt;br&gt;TypeId" style="html=1;fillColor=#dae8fc;gradientColor=#7ea6e0;strokeColor=#6c8ebf;" vertex="1" parent="1">
                    <mxGeometry x="755" y="640" width="100" height="30" as="geometry"/>
                </mxCell>
                <mxCell id="110" value="Contribution&lt;br&gt;Type" style="html=1;fillColor=#dae8fc;gradientColor=#7ea6e0;strokeColor=#6c8ebf;" vertex="1" parent="1">
                    <mxGeometry x="755" y="680" width="100" height="30" as="geometry"/>
                </mxCell>
                <mxCell id="111" value="Contribution&lt;br&gt;Status" style="html=1;fillColor=#dae8fc;gradientColor=#7ea6e0;strokeColor=#6c8ebf;" vertex="1" parent="1">
                    <mxGeometry x="865" y="640" width="100" height="30" as="geometry"/>
                </mxCell>
                <mxCell id="112" value="Decay" style="html=1;fillColor=#dae8fc;gradientColor=#7ea6e0;strokeColor=#6c8ebf;" vertex="1" parent="1">
                    <mxGeometry x="645" y="647.5" width="75" height="30" as="geometry"/>
                </mxCell>
                <mxCell id="113" value="Paginated" style="html=1;fillColor=#dae8fc;gradientColor=#7ea6e0;strokeColor=#6c8ebf;" vertex="1" parent="1">
                    <mxGeometry x="755" y="907.5" width="100" height="30" as="geometry"/>
                </mxCell>
                <mxCell id="114" value="Transaction&lt;br&gt;LinkFilters" style="html=1;fillColor=#dae8fc;gradientColor=#7ea6e0;strokeColor=#6c8ebf;" vertex="1" parent="1">
                    <mxGeometry x="862.5" y="907.5" width="100" height="30" as="geometry"/>
                </mxCell>
                <mxCell id="115" value="Order" style="html=1;fillColor=#dae8fc;gradientColor=#7ea6e0;strokeColor=#6c8ebf;" vertex="1" parent="1">
                    <mxGeometry x="865" y="680" width="100" height="30" as="geometry"/>
                </mxCell>
                <mxCell id="116" value="community&lt;br&gt;User" style="html=1;fillColor=#dae8fc;gradientColor=#7ea6e0;strokeColor=#6c8ebf;" vertex="1" parent="1">
                    <mxGeometry x="545" y="917.5" width="60" height="30" as="geometry"/>
                </mxCell>
                <mxCell id="117" value="mailer" style="shape=folder;fontStyle=1;spacingTop=10;tabWidth=40;tabHeight=14;tabPosition=left;html=1;align=left;verticalAlign=top;fillColor=#f5f5f5;gradientColor=#b3b3b3;strokeColor=#666666;" vertex="1" parent="1">
                    <mxGeometry x="615" y="787.5" width="115" height="80" as="geometry"/>
                </mxCell>
                <mxCell id="118" value="sendAccount&lt;br&gt;ActivationEmail" style="html=1;fillColor=#dae8fc;gradientColor=#7ea6e0;strokeColor=#6c8ebf;" vertex="1" parent="1">
                    <mxGeometry x="625" y="827.5" width="95" height="30" as="geometry"/>
                </mxCell>
                <mxCell id="119" value="config" style="shape=folder;fontStyle=1;spacingTop=10;tabWidth=40;tabHeight=14;tabPosition=left;html=1;align=left;verticalAlign=top;fillColor=#f5f5f5;gradientColor=#b3b3b3;strokeColor=#666666;" vertex="1" parent="1">
                    <mxGeometry x="55" y="787.5" width="125" height="80" as="geometry"/>
                </mxCell>
                <mxCell id="120" value="CONFIG" style="html=1;fillColor=#dae8fc;gradientColor=#7ea6e0;strokeColor=#6c8ebf;" vertex="1" parent="1">
                    <mxGeometry x="65" y="827.5" width="95" height="30" as="geometry"/>
                </mxCell>
                <mxCell id="121" value="creations" style="html=1;fillColor=#dae8fc;gradientColor=#7ea6e0;strokeColor=#6c8ebf;" vertex="1" parent="1">
                    <mxGeometry x="615" y="917.5" width="60" height="30" as="geometry"/>
                </mxCell>
                <mxCell id="122" value="const" style="shape=folder;fontStyle=1;spacingTop=10;tabWidth=40;tabHeight=14;tabPosition=left;html=1;align=left;verticalAlign=top;fillColor=#f5f5f5;gradientColor=#b3b3b3;strokeColor=#666666;" vertex="1" parent="1">
                    <mxGeometry x="55" y="877.5" width="125" height="80" as="geometry"/>
                </mxCell>
                <mxCell id="123" value="const" style="html=1;fillColor=#dae8fc;gradientColor=#7ea6e0;strokeColor=#6c8ebf;" vertex="1" parent="1">
                    <mxGeometry x="65" y="917.5" width="95" height="30" as="geometry"/>
                </mxCell>
                <mxCell id="124" value="Contribution&lt;br&gt;Message" style="html=1;fillColor=#dae8fc;gradientColor=#7ea6e0;strokeColor=#6c8ebf;" vertex="1" parent="1">
                    <mxGeometry x="1295" y="640" width="75" height="30" as="geometry"/>
                </mxCell>
                <mxCell id="125" value="Contribution&lt;br&gt;MessageArgs" style="html=1;fillColor=#dae8fc;gradientColor=#7ea6e0;strokeColor=#6c8ebf;" vertex="1" parent="1">
                    <mxGeometry x="975" y="827.5" width="100" height="30" as="geometry"/>
                </mxCell>
                <mxCell id="126" value="MessageType" style="html=1;fillColor=#dae8fc;gradientColor=#7ea6e0;strokeColor=#6c8ebf;" vertex="1" parent="1">
                    <mxGeometry x="975" y="640" width="100" height="30" as="geometry"/>
                </mxCell>
                <mxCell id="127" value="Contribution&lt;br&gt;Message" style="html=1;fillColor=#dae8fc;gradientColor=#7ea6e0;strokeColor=#6c8ebf;" vertex="1" parent="1">
                    <mxGeometry x="645" y="687.5" width="75" height="30" as="geometry"/>
                </mxCell>
                <mxCell id="128" value="type-graphql" style="shape=folder;fontStyle=1;spacingTop=10;tabWidth=40;tabHeight=14;tabPosition=left;html=1;align=left;verticalAlign=top;fillColor=#f5f5f5;gradientColor=#b3b3b3;strokeColor=#666666;" vertex="1" parent="1">
                    <mxGeometry x="225" y="607.5" width="115" height="162.5" as="geometry"/>
                </mxCell>
                <mxCell id="129" value="dbTools" style="shape=folder;fontStyle=1;spacingTop=10;tabWidth=40;tabHeight=14;tabPosition=left;html=1;align=left;verticalAlign=top;fillColor=#f5f5f5;gradientColor=#b3b3b3;strokeColor=#666666;" vertex="1" parent="1">
                    <mxGeometry x="225" y="877.5" width="115" height="80" as="geometry"/>
                </mxCell>
                <mxCell id="130" value="typeorm" style="html=1;fillColor=#dae8fc;gradientColor=#7ea6e0;strokeColor=#6c8ebf;" vertex="1" parent="1">
                    <mxGeometry x="245" y="917.5" width="60" height="30" as="geometry"/>
                </mxCell>
                <mxCell id="131" value="Resolver" style="rounded=0;whiteSpace=wrap;html=1;fillColor=#dae8fc;gradientColor=#7ea6e0;strokeColor=#6c8ebf;" vertex="1" parent="1">
                    <mxGeometry x="230" y="647.5" width="50" height="22.5" as="geometry"/>
                </mxCell>
                <mxCell id="132" value="Query" style="rounded=0;whiteSpace=wrap;html=1;fillColor=#dae8fc;gradientColor=#7ea6e0;strokeColor=#6c8ebf;" vertex="1" parent="1">
                    <mxGeometry x="290" y="647.5" width="40" height="22.5" as="geometry"/>
                </mxCell>
                <mxCell id="133" value="Int" style="rounded=0;whiteSpace=wrap;html=1;fillColor=#dae8fc;gradientColor=#7ea6e0;strokeColor=#6c8ebf;" vertex="1" parent="1">
                    <mxGeometry x="300" y="726.25" width="30" height="23.75" as="geometry"/>
                </mxCell>
                <mxCell id="134" value="Arg" style="rounded=0;whiteSpace=wrap;html=1;fillColor=#dae8fc;gradientColor=#7ea6e0;strokeColor=#6c8ebf;" vertex="1" parent="1">
                    <mxGeometry x="230" y="672.5" width="50" height="17.5" as="geometry"/>
                </mxCell>
                <mxCell id="135" value="Args" style="rounded=0;whiteSpace=wrap;html=1;fillColor=#dae8fc;gradientColor=#7ea6e0;strokeColor=#6c8ebf;" vertex="1" parent="1">
                    <mxGeometry x="290" y="672.5" width="40" height="17.5" as="geometry"/>
                </mxCell>
                <mxCell id="136" value="Authorized" style="rounded=0;whiteSpace=wrap;html=1;fillColor=#dae8fc;gradientColor=#7ea6e0;strokeColor=#6c8ebf;" vertex="1" parent="1">
                    <mxGeometry x="230" y="697.5" width="60" height="22.5" as="geometry"/>
                </mxCell>
                <mxCell id="137" value="Mutation" style="rounded=0;whiteSpace=wrap;html=1;fillColor=#dae8fc;gradientColor=#7ea6e0;strokeColor=#6c8ebf;" vertex="1" parent="1">
                    <mxGeometry x="230" y="727.5" width="60" height="22.5" as="geometry"/>
                </mxCell>
                <mxCell id="138" value="Ctx" style="rounded=0;whiteSpace=wrap;html=1;fillColor=#dae8fc;gradientColor=#7ea6e0;strokeColor=#6c8ebf;" vertex="1" parent="1">
                    <mxGeometry x="300" y="697.5" width="30" height="22.5" as="geometry"/>
                </mxCell>
                <mxCell id="139" value="decimal" style="shape=folder;fontStyle=1;spacingTop=10;tabWidth=40;tabHeight=14;tabPosition=left;html=1;align=left;verticalAlign=top;fillColor=#f5f5f5;gradientColor=#b3b3b3;strokeColor=#666666;" vertex="1" parent="1">
                    <mxGeometry x="225" y="787" width="115" height="80" as="geometry"/>
                </mxCell>
                <mxCell id="140" value="js-light" style="html=1;fillColor=#dae8fc;gradientColor=#7ea6e0;strokeColor=#6c8ebf;" vertex="1" parent="1">
                    <mxGeometry x="245" y="827" width="60" height="30" as="geometry"/>
                </mxCell>
                <mxCell id="141" value="&lt;p style=&quot;margin: 0px ; margin-top: 4px ; text-align: center&quot;&gt;&lt;b&gt;UserResolver&lt;/b&gt;&lt;/p&gt;&lt;hr size=&quot;1&quot;&gt;&lt;p style=&quot;margin: 0px ; margin-left: 4px&quot;&gt;+ checkOptInCode:&amp;nbsp;LoginEmailOptIn&lt;/p&gt;&lt;p style=&quot;margin: 0px ; margin-left: 4px&quot;&gt;+&amp;nbsp;activationLink: string&lt;/p&gt;&lt;p style=&quot;margin: 0px ; margin-left: 4px&quot;&gt;+&amp;nbsp;printTimeDuration: string&lt;/p&gt;&lt;hr size=&quot;1&quot;&gt;&lt;p style=&quot;margin: 0px ; margin-left: 4px&quot;&gt;+ verifyLogin(): User&lt;/p&gt;&lt;p style=&quot;margin: 0px ; margin-left: 4px&quot;&gt;+&amp;nbsp;login(): User&lt;/p&gt;&lt;p style=&quot;margin: 0px ; margin-left: 4px&quot;&gt;+&amp;nbsp;logout(): boolean&lt;/p&gt;&lt;p style=&quot;margin: 0px ; margin-left: 4px&quot;&gt;+&amp;nbsp;createUser(): User&lt;/p&gt;&lt;p style=&quot;margin: 0px ; margin-left: 4px&quot;&gt;+&amp;nbsp;forgotPassword(): boolean&lt;/p&gt;&lt;p style=&quot;margin: 0px ; margin-left: 4px&quot;&gt;+&amp;nbsp;setPassword(): boolean&lt;/p&gt;&lt;p style=&quot;margin: 0px ; margin-left: 4px&quot;&gt;+&amp;nbsp;queryOptIn(): boolean&lt;/p&gt;&lt;p style=&quot;margin: 0px ; margin-left: 4px&quot;&gt;+&amp;nbsp;updateUserInfos(): boolean&lt;/p&gt;&lt;p style=&quot;margin: 0px ; margin-left: 4px&quot;&gt;+&amp;nbsp;hasElopage(): boolean&lt;/p&gt;&lt;p style=&quot;margin: 0px ; margin-left: 4px&quot;&gt;+&amp;nbsp;searchAdminUsers():&amp;nbsp;SearchAdminUsersResult&lt;/p&gt;&lt;p style=&quot;margin: 0px ; margin-left: 4px&quot;&gt;+&amp;nbsp;&lt;/p&gt;" style="verticalAlign=top;align=left;overflow=fill;fontSize=12;fontFamily=Helvetica;html=1;" vertex="1" parent="1">
                    <mxGeometry x="1025" y="280" width="285" height="260" as="geometry"/>
                </mxCell>
            </root>
        </mxGraphModel>
    </diagram>
</mxfile>